<?xml version="1.0" standalone="no"?>
<!DOCTYPE svg PUBLIC "-//W3C//DTD SVG 20010904//EN"
 "http://www.w3.org/TR/2001/REC-SVG-20010904/DTD/svg10.dtd">
<svg version="1.0" xmlns="http://www.w3.org/2000/svg"
 width="630.000000pt" height="630.000000pt" viewBox="0 0 630.000000 630.000000"
 preserveAspectRatio="xMidYMid meet">
<metadata>
Created by potrace 1.11, written by Peter Selinger 2001-2013
</metadata>
<g transform="translate(0.000000,630.000000) scale(0.100000,-0.100000)"
fill="#000000" stroke="none">
<path d="M2928 6265 c-2 -2 -34 -6 -71 -10 -75 -6 -99 -9 -237 -31 -79 -13
-168 -33 -350 -80 -49 -12 -285 -97 -295 -106 -5 -4 -15 -8 -22 -8 -21 0 -270
-123 -382 -189 -341 -202 -643 -466 -884 -774 -181 -232 -337 -505 -447 -782
-62 -158 -146 -453 -165 -580 -3 -23 -7 -50 -9 -61 -2 -12 -7 -45 -11 -74 -4
-29 -8 -62 -10 -72 -16 -79 -23 -503 -11 -594 3 -22 8 -68 11 -104 6 -58 10
-91 30 -210 100 -599 413 -1198 860 -1645 345 -346 733 -591 1190 -752 74 -26
223 -71 265 -79 14 -3 42 -10 63 -15 55 -15 193 -39 252 -45 28 -3 56 -7 64
-10 35 -12 195 -19 411 -18 309 0 503 26 797 104 176 47 338 108 522 196 235
113 493 279 676 437 193 166 408 404 547 607 292 423 484 934 533 1415 3 33 8
78 11 100 14 114 6 478 -13 620 -2 22 -5 47 -5 55 0 8 -4 33 -8 55 -5 22 -11
56 -14 75 -29 187 -104 443 -193 660 -36 89 -177 368 -211 417 -10 15 -36 55
-57 88 -168 264 -442 560 -705 761 -222 170 -392 271 -685 404 -111 51 -390
142 -495 163 -14 3 -43 10 -65 15 -22 6 -58 13 -80 17 -23 3 -52 8 -65 10 -14
3 -56 10 -95 15 -38 5 -92 12 -120 16 -52 6 -521 14 -527 9z"/>
</g>
</svg>
