<?xml version="1.0" standalone="no"?>
<!DOCTYPE svg PUBLIC "-//W3C//DTD SVG 20010904//EN"
 "http://www.w3.org/TR/2001/REC-SVG-20010904/DTD/svg10.dtd">
<svg version="1.0" xmlns="http://www.w3.org/2000/svg"
 width="512.000000pt" height="512.000000pt" viewBox="0 0 512.000000 512.000000"
 preserveAspectRatio="xMidYMid meet">
<metadata>
Created by potrace 1.11, written by Peter Selinger 2001-2013
</metadata>
<g transform="translate(0.000000,512.000000) scale(0.100000,-0.100000)"
fill="#000000" stroke="none">
<path d="M3535 4849 c-94 -54 -177 -102 -185 -106 -8 -4 -37 -20 -65 -36 -172
-103 -158 -98 -360 -113 -44 -3 -89 -8 -100 -11 -11 -3 -92 -47 -180 -98 -88
-51 -176 -102 -195 -113 -84 -47 -550 -317 -600 -346 -30 -18 -284 -165 -565
-327 -280 -161 -517 -300 -525 -308 -13 -13 -15 -152 -16 -1132 l0 -1117 35
-18 c20 -11 63 -35 96 -55 33 -20 80 -47 105 -61 25 -14 101 -58 170 -98 69
-40 139 -80 155 -90 17 -9 276 -159 578 -333 l547 -316 218 126 c267 154 234
135 542 312 140 80 257 149 258 154 2 4 8 7 12 7 5 0 105 56 222 123 117 68
317 183 443 256 127 73 235 137 240 142 7 7 10 395 11 1122 l1 1112 -32 60
c-18 33 -53 96 -77 140 -42 75 -258 496 -417 811 l-71 142 0 114 0 114 -38 21
-37 22 -170 -100z"/>
</g>
</svg>
